<?xml version="1.0" encoding="UTF-8"?>
<svg width="28px" height="50px" viewBox="0 0 28 50" version="1.1" xmlns="http://www.w3.org/2000/svg" xmlns:xlink="http://www.w3.org/1999/xlink">
    <!-- Generator: Sketch 40.3 (33839) - http://www.bohemiancoding.com/sketch -->
    <title>mouse</title>
    <desc>Created with Sketch.</desc>
    <defs></defs>
    <g id="Page-1" stroke="none" stroke-width="1" fill="none" fill-rule="evenodd">
        <g id="mouse" fill="#FFFFFF">
            <g id="Page-1">
                <g id="Group">
                    <path d="M14,0 C6.26733333,0 0,6.2953125 0,14.0625 L0,35.9375 C0,43.7046875 6.26733333,50 14,50 C21.7326667,50 28,43.7046875 28,35.9375 L28,14.0625 C28,6.2953125 21.7326667,0 14,0 L14,0 L14,0 Z M24.8888889,35.9375 C24.8888889,41.978125 20.0137778,46.875 14,46.875 C7.98622222,46.875 3.11111111,41.978125 3.11111111,35.9375 L3.11111111,14.0625 C3.11111111,8.021875 7.98622222,3.125 14,3.125 C20.0137778,3.125 24.8888889,8.021875 24.8888889,14.0625 L24.8888889,35.9375 L24.8888889,35.9375 L24.8888889,35.9375 Z M14,7.8125 C13.1413333,7.8125 12.4444444,8.5125 12.4444444,9.375 L12.4444444,17.1875 C12.4444444,18.0515625 13.1413333,18.75 14,18.75 C14.8602222,18.75 15.5555556,18.0515625 15.5555556,17.1875 L15.5555556,9.375 C15.5555556,8.5125 14.8602222,7.8125 14,7.8125 L14,7.8125 L14,7.8125 Z" id="Shape"></path>
                </g>
            </g>
        </g>
    </g>
</svg>